<svg width="64" height="57" viewBox="0 0 64 57" fill="none" xmlns="http://www.w3.org/2000/svg">
<path fill-rule="evenodd" clip-rule="evenodd" d="M47.2348 2.86102e-06L15.2762 0.362949L-4.76837e-07 26.8222L14.6383 56.4275L47.4861 56.5738L63.7763 28.3584L47.2348 2.86102e-06ZM54.4081 42.5846L62.3344 28.8558L49.6653 28.7994L41.6408 42.6983L54.4081 42.5846ZM53.8278 43.5898L46.9103 55.5712L34.2411 55.5148L41.0604 43.7035L53.8278 43.5898ZM39.8997 43.7138L33.0894 55.5097L15.8133 55.4327L22.4897 43.8689L39.8997 43.7138ZM21.6263 43.3643L14.9836 54.8698L7.25958 39.2482L13.4995 28.4403L21.6263 43.3643ZM14.0855 27.4254L22.2123 42.3493L30.374 28.2128L22.1563 13.5985L22.0676 13.6L14.0855 27.4254ZM12.9391 27.4111L6.72688 38.1709L1.13362 26.8587L7.05412 16.6041L12.9391 27.4111ZM7.64009 15.5892L13.525 26.3962L21.4846 12.6097L21.5992 12.6078L15.5611 1.86961L7.64009 15.5892ZM23.0701 42.8637L40.4801 42.7086L48.5135 28.7943L31.2374 28.7174L23.0701 42.8637ZM48.3606 27.7936L31.2427 27.7174L23.2928 13.5794L39.9064 13.2999L48.3606 27.7936ZM39.3287 12.3095L22.7357 12.5887L16.4162 1.35007L32.8273 1.16369L39.3287 12.3095ZM33.9774 1.15063L40.4751 12.2902L53.1219 12.0775L46.6642 1.00655L33.9774 1.15063ZM53.6996 13.0679L41.0528 13.2807L49.5213 27.7988L62.3254 27.8558L53.6996 13.0679Z" fill="url(#paint0_linear_500_5982)"/>
<defs>
<linearGradient id="paint0_linear_500_5982" x1="14.4205" y1="0.252288" x2="46.9205" y2="58.2523" gradientUnits="userSpaceOnUse">
<stop/>
<stop offset="1" stop-opacity="0"/>
</linearGradient>
</defs>
</svg>
